<?xml version="1.0" encoding="UTF-8"?>
<svg width="49px" height="47px" viewBox="0 0 49 47" version="1.1" xmlns="http://www.w3.org/2000/svg" xmlns:xlink="http://www.w3.org/1999/xlink">
    <!-- Generator: Sketch 52.6 (67491) - http://www.bohemiancoding.com/sketch -->
    <title>Group</title>
    <desc>Created with Sketch.</desc>
    <defs>
        <circle id="path-1" cx="23.5" cy="23.5" r="17.5"></circle>
        <path d="M38,5.89200999 L38,12.9556804 C34.4619418,10.072187 30.8013325,8.63046192 27.0180624,8.63046192 C22.8494592,8.63046192 19.3377264,10.0892488 16.4827586,13.0068664 C13.6102757,15.9074219 12.1740558,19.4562836 12.1740558,23.6535581 C12.1740558,27.7996462 13.6102757,31.2973224 16.4827586,34.1466916 C19.3552415,36.9960609 22.8757318,38.4207241 27.044335,38.4207241 C29.1986971,38.4207241 31.0290018,38.0794874 32.5353038,37.3970037 C33.3760305,37.0557619 34.2473956,36.5950924 35.1494253,36.0149813 C36.051455,35.4348702 37.001637,34.7353349 38,33.9163546 L38,41.10799 C34.4969721,43.0360063 30.8188479,44 26.9655172,44 C21.168006,44 16.2200533,42.029358 12.1215107,38.088015 C8.04048315,34.1125477 6,29.3181721 6,23.7047441 C6,18.6714272 7.70770049,14.1841645 11.1231527,10.2428215 C15.3267862,5.41424968 20.7651555,3 27.4384236,3 C31.0815727,3 34.6020629,3.96399369 38,5.89200999 Z" id="path-2"></path>
        <path d="M48.28125,46.9042969 L39.6972656,46.9042969 L36.1523438,43.2714844 C32.3827937,45.6933715 28.1836169,46.9042969 23.5546875,46.9042969 C17.5585638,46.9042969 12.2363514,44.8730672 7.58789063,40.8105469 C2.52927158,36.3378683 0,30.6250348 0,23.671875 C0,16.8554347 2.3925542,11.1718978 7.17773437,6.62109375 C11.8261951,2.20700918 17.3144215,0 23.6425781,0 C29.3847943,0 34.5312272,1.93357441 39.0820312,5.80078125 C44.5508086,10.449242 47.2851562,16.5136345 47.2851562,23.9941406 C47.2851562,29.8535449 45.1269747,35.058571 40.8105469,39.609375 L48.28125,46.9042969 Z M29.5019531,28.1835938 L36.0644531,34.7167969 C38.9550926,31.7089693 40.4003906,27.9883034 40.4003906,23.5546875 C40.4003906,18.6913819 38.7890786,14.619157 35.5664062,11.3378906 C32.3437339,8.05662422 28.3398677,6.41601562 23.5546875,6.41601562 C18.7109133,6.41601562 14.7265781,8.05662422 11.6015625,11.3378906 C8.45701553,14.5996257 6.88476562,18.7304438 6.88476562,23.7304688 C6.88476562,28.6133057 8.50584316,32.6074063 11.7480469,35.7128906 C15.12697,38.9160316 18.9843533,40.5175781 23.3203125,40.5175781 C26.269546,40.5175781 28.935535,39.8437567 31.3183594,38.4960938 L20.6835938,28.1835938 L29.5019531,28.1835938 Z" id="path-3"></path>
    </defs>
    <g id="Page-1" stroke="none" stroke-width="1" fill="none" fill-rule="evenodd">
        <g id="Group-2" transform="translate(-123.000000, -1.000000)">
            <g id="Group" transform="translate(123.000000, 1.000000)">
                <g id="Oval">
                    <use fill="#B21212" xlink:href="#path-1"></use>
                    <use fill="#000000" xlink:href="#path-1"></use>
                </g>
                <g id="CINAQ-Copy-3">
                    <use fill="#FFFFFF" xlink:href="#path-2"></use>
                    <use fill="#19508F" xlink:href="#path-2"></use>
                </g>
                <g id="CINAQ-Copy-2">
                    <use fill="#B21212" xlink:href="#path-3"></use>
                    <use fill="#4A90E2" xlink:href="#path-3"></use>
                </g>
            </g>
        </g>
    </g>
</svg>