<svg width="1400" height="900" viewBox="0 0 1400 900" fill="none" xmlns="http://www.w3.org/2000/svg">
  <defs>
    <linearGradient id="sky" x1="700" y1="80" x2="700" y2="520" gradientUnits="userSpaceOnUse">
      <stop stop-color="#EAF5FF"/>
      <stop offset="1" stop-color="#DDF0FF"/>
    </linearGradient>
    <linearGradient id="sea" x1="700" y1="460" x2="700" y2="840" gradientUnits="userSpaceOnUse">
      <stop stop-color="#7EC0FF"/>
      <stop offset="1" stop-color="#007BFF"/>
    </linearGradient>
    <linearGradient id="sailMain" x1="705" y1="290" x2="860" y2="560" gradientUnits="userSpaceOnUse">
      <stop stop-color="#66B3FF"/>
      <stop offset="1" stop-color="#007BFF"/>
    </linearGradient>
    <linearGradient id="sailSmall" x1="600" y1="340" x2="700" y2="560" gradientUnits="userSpaceOnUse">
      <stop stop-color="#B9DCFF"/>
      <stop offset="1" stop-color="#66B3FF"/>
    </linearGradient>
    <filter id="shadow" x="0" y="0" width="1400" height="900" filterUnits="userSpaceOnUse" color-interpolation-filters="sRGB">
      <feDropShadow dx="0" dy="14" stdDeviation="14" flood-color="#005FD1" flood-opacity="0.15"/>
    </filter>
  </defs>

  <rect x="60" y="60" width="1280" height="780" rx="44" fill="url(#sky)"/>
  <rect x="60" y="470" width="1280" height="370" rx="0" fill="url(#sea)"/>

  <g opacity="0.6">
    <circle cx="230" cy="170" r="10" fill="#66B3FF"/>
    <circle cx="1180" cy="170" r="8" fill="#66B3FF"/>
    <circle cx="1220" cy="760" r="11" fill="#66B3FF"/>
  </g>

  <g opacity="0.9">
    <ellipse cx="300" cy="220" rx="95" ry="26" fill="#FFFFFF" fill-opacity="0.75"/>
    <ellipse cx="990" cy="200" rx="120" ry="30" fill="#FFFFFF" fill-opacity="0.7"/>
    <ellipse cx="1120" cy="250" rx="80" ry="22" fill="#FFFFFF" fill-opacity="0.65"/>
  </g>

  <g opacity="0.45">
    <path d="M70 560C190 520 310 520 430 560C550 600 670 600 790 560C910 520 1030 520 1150 560C1210 580 1270 590 1330 585" stroke="#BFE1FF" stroke-width="9" stroke-linecap="round"/>
    <path d="M70 620C190 580 310 580 430 620C550 660 670 660 790 620C910 580 1030 580 1150 620C1210 640 1270 650 1330 645" stroke="#D7EDFF" stroke-width="7" stroke-linecap="round"/>
    <path d="M70 690C190 650 310 650 430 690C550 730 670 730 790 690C910 650 1030 650 1150 690C1210 710 1270 720 1330 715" stroke="#E6F5FF" stroke-width="6" stroke-linecap="round"/>
  </g>

  <g filter="url(#shadow)">
    <path d="M530 540H930L870 610H590L530 540Z" fill="#0F4F9A"/>
    <path d="M560 540H900L852 590H608L560 540Z" fill="#1B68C0"/>
    <rect x="725" y="300" width="10" height="240" rx="5" fill="#0D3E78"/>
    <path d="M735 310L735 515L875 430L735 310Z" fill="url(#sailMain)"/>
    <path d="M725 350L725 510L610 445L725 350Z" fill="url(#sailSmall)"/>
    <path d="M590 610H870C850 640 810 665 730 665C650 665 610 640 590 610Z" fill="#EAF5FF" fill-opacity="0.45"/>
  </g>

  <g opacity="0.9">
    <circle cx="250" cy="520" r="20" fill="#66B3FF"/>
    <circle cx="250" cy="520" r="9" fill="#FFFFFF"/>
    <circle cx="1130" cy="545" r="17" fill="#2D90FF"/>
    <circle cx="1130" cy="545" r="7" fill="#FFFFFF"/>
  </g>

  <g opacity="0.55" stroke="#FFFFFF" stroke-width="5" stroke-linecap="round">
    <path d="M470 735C530 715 600 715 660 735"/>
    <path d="M760 748C815 730 875 730 930 748"/>
    <path d="M280 760C340 742 405 742 465 760"/>
  </g>
</svg>
